<svg xmlns="http://www.w3.org/2000/svg" viewBox="0 0 24 24" fill="none" stroke="currentColor" stroke-width="1.5" stroke-linecap="round" stroke-linejoin="round">
  <!-- Chip body -->
  <rect x="5" y="5" width="14" height="14" rx="2" />
  <!-- Memory blocks inside -->
  <rect x="7" y="7" width="10" height="3" fill="currentColor" opacity="0.7" />
  <rect x="7" y="11" width="10" height="2" fill="currentColor" opacity="0.4" />
  <rect x="7" y="14" width="10" height="3" fill="currentColor" opacity="0.2" />
  <!-- Pins -->
  <line x1="8" y1="3" x2="8" y2="5" />
  <line x1="12" y1="3" x2="12" y2="5" />
  <line x1="16" y1="3" x2="16" y2="5" />
  <line x1="8" y1="19" x2="8" y2="21" />
  <line x1="12" y1="19" x2="12" y2="21" />
  <line x1="16" y1="19" x2="16" y2="21" />
  <line x1="3" y1="8" x2="5" y2="8" />
  <line x1="3" y1="12" x2="5" y2="12" />
  <line x1="3" y1="16" x2="5" y2="16" />
  <line x1="19" y1="8" x2="21" y2="8" />
  <line x1="19" y1="12" x2="21" y2="12" />
  <line x1="19" y1="16" x2="21" y2="16" />
</svg>
